<svg width="7" height="5" viewBox="0 0 7 5" fill="none" xmlns="http://www.w3.org/2000/svg">
<path
  d="M4.45131 3.67713C4.04413 4.11792 3.84053 4.33832 3.58647 4.36992C3.52909 4.37706 3.47104 4.37706 3.41366 4.36992C3.1596 4.33832 2.95601 4.11792 2.54882 3.67713L1.61017 2.66101C0.825275 1.81134 0.432829 1.3865 0.521615 1.02173C0.540839 0.942755 0.573672 0.867728 0.618642 0.800016C0.826338 0.487283 1.4047 0.487283 2.56141 0.487283L4.43872 0.487283C5.59544 0.487283 6.1738 0.487284 6.38149 0.800016C6.42646 0.867728 6.4593 0.942756 6.47852 1.02173C6.5673 1.3865 6.17486 1.81134 5.38997 2.66101L4.45131 3.67713Z" fill="currentColor"/>
</svg>
